<svg fill="none" height="32" viewBox="0 0 32 32" width="32" xmlns="http://www.w3.org/2000/svg" xmlns:xlink="http://www.w3.org/1999/xlink"><linearGradient id="a" gradientUnits="userSpaceOnUse" x1="4.42591" x2="27.2309" y1="24.6668" y2="23.2764"><stop offset="0" stop-color="#2086b8"/><stop offset="1" stop-color="#46d3f6"/></linearGradient><linearGradient id="b" gradientUnits="userSpaceOnUse" x1="23.8302" x2="30.2108" y1="19.6668" y2="15.2082"><stop offset="0" stop-color="#1694db"/><stop offset="1" stop-color="#62c3fe"/></linearGradient><linearGradient id="c" gradientUnits="userSpaceOnUse" x1="8.51037" x2="23.3335" y1="7.33333" y2="15.9348"><stop offset="0" stop-color="#0d3d78"/><stop offset="1" stop-color="#063b83"/></linearGradient><linearGradient id="d" gradientUnits="userSpaceOnUse" x1="-.340429" x2="14.5634" y1="19.9998" y2="14.4649"><stop offset="0" stop-color="#16589b"/><stop offset="1" stop-color="#1464b7"/></linearGradient><mask id="e" height="20" maskUnits="userSpaceOnUse" width="32" x="0" y="6"><path d="m7.82979 26c-4.3243 0-7.82979-3.4325-7.82979-7.6667 0-4.1412 3.35322-7.5154 7.54613-7.6617 1.72922-2.79994 4.86827-4.6716 8.45387-4.6716 4.6308 0 8.5169 3.12183 9.5829 7.3335 3.5487.0268 6.4171 2.852 6.4171 6.3332 0 3.386-3 6.3333-6.1277 6.3247z" fill="#c4c4c4"/></mask><g mask="url(#e)"><path d="m7.83017 26.0001c-2.45193 0-4.6406-1.1035-6.07626-2.831l16.28899-6.8356 12.666 7.1312c-1.1163 1.4564-2.8023 2.5354-4.7085 2.5268-2.875.0086-13.9375.0086-18.17023.0086z" fill="url(#a)"/><path d="m25.5785 13.3149-7.5355 3.0185 12.666 7.1313c.8109-1.0582 1.2914-2.3731 1.2914-3.7978 0-3.4812-2.8683-6.3064-6.4171-6.3332-.0016-.0063-.0032-.0125-.0048-.0188z" fill="url(#b)"/><path d="m7.06445 10.7028 10.97785 5.6305 7.5356-3.0185c-1.0728-4.20219-4.9542-7.3148-9.5782-7.3148-3.5856 0-6.72462 1.87166-8.45384 4.6716-.16176.0057-.32228.0161-.48141.0312z" fill="url(#c)"/><path d="m1.7535 23.1687 16.289-6.8356-10.97779-5.6305c-3.96524.3766-7.06471 3.6491-7.06471 7.6305 0 1.8334.657197 3.5164 1.7535 4.8356z" fill="url(#d)"/></g></svg>